<?xml version="1.0" encoding="utf-8"?>
<svg version="1.1" xmlns:xlink="http://www.w3.org/1999/xlink" width="13px" height="13px" viewBox="291 1006.5  13 13" xmlns="http://www.w3.org/2000/svg">
  <path d="M 291.5 1008.5  A 1.5 1.5 0 0 1 293 1007 L 302 1007  A 1.5 1.5 0 0 1 303.5 1008.5 L 303.5 1017.5  A 1.5 1.5 0 0 1 302 1019 L 293 1019  A 1.5 1.5 0 0 1 291.5 1017.5 L 291.5 1008.5  Z " fill-rule="nonzero" fill="#f0f0f0" stroke="none" />
  <path d="M 291.5 1008.5  A 1.5 1.5 0 0 1 293 1007 L 302 1007  A 1.5 1.5 0 0 1 303.5 1008.5 L 303.5 1017.5  A 1.5 1.5 0 0 1 302 1019 L 293 1019  A 1.5 1.5 0 0 1 291.5 1017.5 L 291.5 1008.5  Z " stroke-width="1" stroke="#797979" fill="none" />
  <path d="M 293.7857142857143 1013  L 296.57142857142856 1015.7857142857142  L 301.2142857142857 1009.2857142857143  " stroke-width="2.7857142857142856" stroke="#797979" fill="none" />
</svg>