<?xml version="1.0" encoding="utf-8"?>
<svg version="1.1" xmlns:xlink="http://www.w3.org/1999/xlink" width="13px" height="13px" viewBox="291 958.5  13 13" xmlns="http://www.w3.org/2000/svg">
  <path d="M 291.5 960.5  A 1.5 1.5 0 0 1 293 959 L 302 959  A 1.5 1.5 0 0 1 303.5 960.5 L 303.5 969.5  A 1.5 1.5 0 0 1 302 971 L 293 971  A 1.5 1.5 0 0 1 291.5 969.5 L 291.5 960.5  Z " fill-rule="nonzero" fill="#ffffff" stroke="none" />
  <path d="M 291.5 960.5  A 1.5 1.5 0 0 1 293 959 L 302 959  A 1.5 1.5 0 0 1 303.5 960.5 L 303.5 969.5  A 1.5 1.5 0 0 1 302 971 L 293 971  A 1.5 1.5 0 0 1 291.5 969.5 L 291.5 960.5  Z " stroke-width="1" stroke="#797979" fill="none" />
</svg>