<?xml version="1.0" encoding="utf-8"?>
<svg version="1.1" xmlns:xlink="http://www.w3.org/1999/xlink" width="13px" height="13px" viewBox="291 935.5  13 13" xmlns="http://www.w3.org/2000/svg">
  <path d="M 291.5 937.5  A 1.5 1.5 0 0 1 293 936 L 302 936  A 1.5 1.5 0 0 1 303.5 937.5 L 303.5 946.5  A 1.5 1.5 0 0 1 302 948 L 293 948  A 1.5 1.5 0 0 1 291.5 946.5 L 291.5 937.5  Z " fill-rule="nonzero" fill="#ffffff" stroke="none" />
  <path d="M 291.5 937.5  A 1.5 1.5 0 0 1 293 936 L 302 936  A 1.5 1.5 0 0 1 303.5 937.5 L 303.5 946.5  A 1.5 1.5 0 0 1 302 948 L 293 948  A 1.5 1.5 0 0 1 291.5 946.5 L 291.5 937.5  Z " stroke-width="1" stroke="#797979" fill="none" />
</svg>