<?xml version="1.0" encoding="utf-8"?>
<svg version="1.1" xmlns:xlink="http://www.w3.org/1999/xlink" width="13px" height="13px" viewBox="291 1095.5  13 13" xmlns="http://www.w3.org/2000/svg">
  <path d="M 291.5 1097.5  A 1.5 1.5 0 0 1 293 1096 L 302 1096  A 1.5 1.5 0 0 1 303.5 1097.5 L 303.5 1106.5  A 1.5 1.5 0 0 1 302 1108 L 293 1108  A 1.5 1.5 0 0 1 291.5 1106.5 L 291.5 1097.5  Z " fill-rule="nonzero" fill="#ffffff" stroke="none" />
  <path d="M 291.5 1097.5  A 1.5 1.5 0 0 1 293 1096 L 302 1096  A 1.5 1.5 0 0 1 303.5 1097.5 L 303.5 1106.5  A 1.5 1.5 0 0 1 302 1108 L 293 1108  A 1.5 1.5 0 0 1 291.5 1106.5 L 291.5 1097.5  Z " stroke-width="1" stroke="#797979" fill="none" />
  <path d="M 293.7857142857143 1102  L 296.57142857142856 1104.7857142857144  L 301.2142857142857 1098.2857142857142  " stroke-width="2.7857142857142856" stroke="#797979" fill="none" />
</svg>