<?xml version="1.0" encoding="utf-8"?>
<svg version="1.1" xmlns:xlink="http://www.w3.org/1999/xlink" width="13px" height="13px" viewBox="291 982.5  13 13" xmlns="http://www.w3.org/2000/svg">
  <path d="M 291.5 984.5  A 1.5 1.5 0 0 1 293 983 L 302 983  A 1.5 1.5 0 0 1 303.5 984.5 L 303.5 993.5  A 1.5 1.5 0 0 1 302 995 L 293 995  A 1.5 1.5 0 0 1 291.5 993.5 L 291.5 984.5  Z " fill-rule="nonzero" fill="#f0f0f0" stroke="none" />
  <path d="M 291.5 984.5  A 1.5 1.5 0 0 1 293 983 L 302 983  A 1.5 1.5 0 0 1 303.5 984.5 L 303.5 993.5  A 1.5 1.5 0 0 1 302 995 L 293 995  A 1.5 1.5 0 0 1 291.5 993.5 L 291.5 984.5  Z " stroke-width="1" stroke="#797979" fill="none" />
  <path d="M 293.7857142857143 989  L 296.57142857142856 991.7857142857142  L 301.2142857142857 985.2857142857143  " stroke-width="2.7857142857142856" stroke="#797979" fill="none" />
</svg>