<?xml version="1.0" encoding="utf-8"?>
<svg version="1.1" xmlns:xlink="http://www.w3.org/1999/xlink" width="223px" height="122px" xmlns="http://www.w3.org/2000/svg">
  <defs>
    <filter x="-183px" y="15px" width="223px" height="122px" filterUnits="userSpaceOnUse" id="filter288">
      <feOffset dx="0" dy="6" in="SourceAlpha" result="shadowOffsetInner" />
      <feGaussianBlur stdDeviation="6" in="shadowOffsetInner" result="shadowGaussian" />
      <feComposite in2="shadowGaussian" operator="atop" in="SourceAlpha" result="shadowComposite" />
      <feColorMatrix type="matrix" values="0 0 0 0 0  0 0 0 0 0  0 0 0 0 0  0 0 0 0.16862745098039217 0  " in="shadowComposite" />
    </filter>
    <g id="widget289">
      <path d="M -170 25  A 3 3 0 0 1 -167 22 L 24 22  A 3 3 0 0 1 27 25 L 27 115  A 3 3 0 0 1 24 118 L -167 118  A 3 3 0 0 1 -170 115 L -170 25  Z " fill-rule="nonzero" fill="#ffffff" stroke="none" />
      <path d="M -170.5 25  A 3.5 3.5 0 0 1 -167 21.5 L 24 21.5  A 3.5 3.5 0 0 1 27.5 25 L 27.5 115  A 3.5 3.5 0 0 1 24 118.5 L -167 118.5  A 3.5 3.5 0 0 1 -170.5 115 L -170.5 25  Z " stroke-width="1" stroke="#000000" fill="none" stroke-opacity="0.14901960784313725" />
    </g>
  </defs>
  <g transform="matrix(1 0 0 1 183 -15 )">
    <use xlink:href="#widget289" filter="url(#filter288)" />
    <use xlink:href="#widget289" />
  </g>
</svg>