<?xml version="1.0" encoding="utf-8"?>
<svg version="1.1" xmlns:xlink="http://www.w3.org/1999/xlink" width="147px" height="40px" xmlns="http://www.w3.org/2000/svg">
  <g transform="matrix(1 0 0 1 -191 -462 )">
    <path d="M 192 466  A 3 3 0 0 1 195 463 L 334 463  A 3 3 0 0 1 337 466 L 337 498  A 3 3 0 0 1 334 501 L 195 501  A 3 3 0 0 1 192 498 L 192 466  Z " fill-rule="nonzero" fill="#ffffff" stroke="none" />
    <path d="M 191.5 466  A 3.5 3.5 0 0 1 195 462.5 L 334 462.5  A 3.5 3.5 0 0 1 337.5 466 L 337.5 498  A 3.5 3.5 0 0 1 334 501.5 L 195 501.5  A 3.5 3.5 0 0 1 191.5 498 L 191.5 466  Z " stroke-width="1" stroke="#aaaaaa" fill="none" stroke-opacity="0.34901960784313724" />
  </g>
</svg>